<?xml version="1.0" encoding="UTF-8" standalone="no"?>
<svg
   xmlns:dc="http://purl.org/dc/elements/1.1/"
   xmlns:cc="http://creativecommons.org/ns#"
   xmlns:rdf="http://www.w3.org/1999/02/22-rdf-syntax-ns#"
   xmlns:svg="http://www.w3.org/2000/svg"
   xmlns="http://www.w3.org/2000/svg"
   xmlns:sodipodi="http://sodipodi.sourceforge.net/DTD/sodipodi-0.dtd"
   xmlns:inkscape="http://www.inkscape.org/namespaces/inkscape"
   width="456.04181"
   height="103.22926"
   viewBox="0 0 427.53889 96.777589"
   version="1.1"
   id="svg72"
   sodipodi:docname="logo-large.72ad8bf1.svg"
   inkscape:version="0.92.4 5da689c313, 2019-01-14">
  <metadata
     id="metadata78">
    <rdf:RDF>
      <cc:Work
         rdf:about="">
        <dc:format>image/svg+xml</dc:format>
        <dc:type
           rdf:resource="http://purl.org/dc/dcmitype/StillImage" />
        <dc:title></dc:title>
      </cc:Work>
    </rdf:RDF>
  </metadata>
  <defs
     id="defs76" />
  <sodipodi:namedview
     pagecolor="#ffffff"
     bordercolor="#666666"
     borderopacity="1"
     objecttolerance="10"
     gridtolerance="10"
     guidetolerance="10"
     inkscape:pageopacity="0"
     inkscape:pageshadow="2"
     inkscape:window-width="1920"
     inkscape:window-height="1021"
     id="namedview74"
     showgrid="false"
     inkscape:zoom="0.89791335"
     inkscape:cx="-152.89482"
     inkscape:cy="196.57459"
     inkscape:window-x="1920"
     inkscape:window-y="0"
     inkscape:window-maximized="1"
     inkscape:current-layer="svg72"
     fit-margin-top="0"
     fit-margin-left="0"
     fit-margin-right="0"
     fit-margin-bottom="0" />
  <path
     d="m 15.800229,37.158798 15.555,5.662 15.786,-5.746 -15.555,-5.662 z m 15.623,-12.783 15.556,5.662 15.785,-5.746 -15.555,-5.662 z"
     id="path2"
     inkscape:connector-curvature="0"
     style="fill:#f7f7f4;stroke:#cccccc;stroke-width:0.35499999;stroke-linejoin:bevel" />
  <path
     d="m 31.423229,24.375798 15.556,5.662 v 18.282 l -15.556,-5.661 z"
     id="path4"
     inkscape:connector-curvature="0"
     style="fill:#efeeea;stroke:#cccccc;stroke-width:0.35499999;stroke-linejoin:bevel" />
  <path
     d="m 0.17722943,61.302798 15.55499957,5.663 15.786,-5.746 -15.556,-5.662 z"
     id="path6"
     inkscape:connector-curvature="0"
     style="fill:#f7f7f4;stroke:#cccccc;stroke-width:0.35499999;stroke-linejoin:bevel" />
  <path
     d="m 0.17722943,61.302798 15.55499957,5.663 v 18.282 l -15.55499957,-5.661 z"
     id="path8"
     inkscape:connector-curvature="0"
     style="fill:#efeeea;stroke:#cccccc;stroke-width:0.35499999;stroke-linejoin:bevel" />
  <path
     d="m 15.799229,66.984798 15.556,5.662 v 18.283 l -15.555,-5.662 z"
     id="path20"
     inkscape:connector-curvature="0"
     style="fill:#efeeea;stroke:#cccccc;stroke-width:0.35499999;stroke-linejoin:bevel" />
  <path
     d="m 15.799229,48.520798 15.556,5.662 15.786,-5.746 -15.555,-5.661 z"
     id="path22"
     inkscape:connector-curvature="0"
     style="fill:#f7f7f4;stroke:#cccccc;stroke-width:0.35499999;stroke-linejoin:bevel" />
  <path
     d="m 15.800229,37.158798 15.556,5.662 v 18.283 l -15.555,-5.662 z"
     id="path24"
     inkscape:connector-curvature="0"
     style="fill:#efeeea;stroke:#cccccc;stroke-width:0.35499999;stroke-linejoin:bevel" />
  <path
     d="m 93.849229,61.283798 v 18.283 l 15.785001,-5.745 v -18.283 z"
     id="path26"
     inkscape:connector-curvature="0"
     style="fill:#ffffff;stroke:#cccccc;stroke-width:0.35499999;stroke-linejoin:bevel" />
  <path
     d="m 78.225229,66.965798 v 18.282 l 15.786,-5.745 v -18.283 z"
     id="path28"
     inkscape:connector-curvature="0"
     style="fill:#ffd242;stroke:#cccccc;stroke-width:0.35499999;stroke-linejoin:bevel" />
  <path
     d="m 91.150229,71.422798 a 2.617,3.737 35 0 1 -3.032,4.33 2.617,3.737 35 0 1 -3.031,-2.122 2.617,3.737 35 0 1 3.031,-4.33 2.617,3.737 35 0 1 3.032,2.123 z"
     id="path30"
     inkscape:connector-curvature="0"
     style="fill:#ffffff" />
  <path
     d="m 62.602229,72.646798 v 18.283 l 15.786,-5.746 v -18.283 z"
     id="path32"
     inkscape:connector-curvature="0"
     style="fill:#ffd242;stroke:#cccccc;stroke-width:0.35499999;stroke-linejoin:bevel" />
  <path
     d="m 46.979229,78.327798 v 18.283 l 15.785,-5.746 v -18.282 z"
     id="path34"
     inkscape:connector-curvature="0"
     style="fill:#ffffff;stroke:#cccccc;stroke-width:0.35499999;stroke-linejoin:bevel" />
  <path
     d="m 31.423229,72.665798 15.556,5.662 v 18.283 l -15.556,-5.662 z"
     id="path36"
     inkscape:connector-curvature="0"
     style="fill:#efeeea;stroke:#cccccc;stroke-width:0.35499999;stroke-linejoin:bevel" />
  <path
     d="m 93.849229,42.820798 v 18.282 l 15.785001,-5.745 v -18.283 z"
     id="path38"
     inkscape:connector-curvature="0"
     style="fill:#ffd242;stroke:#cccccc;stroke-width:0.35499999;stroke-linejoin:bevel" />
  <path
     d="m 78.293229,18.694798 15.556,5.662 15.785001,-5.746 -15.555001,-5.662 z"
     id="path40"
     inkscape:connector-curvature="0"
     style="fill:#ffc91d;stroke:#cccccc;stroke-width:0.35499999;stroke-linejoin:bevel" />
  <path
     d="m 93.849229,24.356798 v 18.282 l 15.785001,-5.745 v -18.283 z m -15.624,24.145 v 18.282 l 15.786,-5.745 v -18.283 z"
     id="path42"
     inkscape:connector-curvature="0"
     style="fill:#ffd242;stroke:#cccccc;stroke-width:0.35499999;stroke-linejoin:bevel" />
  <path
     d="m 78.225229,30.037798 v 18.282 l 15.786,-5.745 v -18.283 z"
     id="path44"
     inkscape:connector-curvature="0"
     style="fill:#3775a9;stroke:#cccccc;stroke-width:0.35499999;stroke-linejoin:bevel" />
  <path
     d="m 62.670229,5.9117976 15.555,5.6620004 15.786,-5.7460004 -15.555,-5.66100001 z"
     id="path46"
     inkscape:connector-curvature="0"
     style="fill:#2f6491;stroke:#cccccc;stroke-width:0.35499999;stroke-linejoin:bevel" />
  <path
     d="m 78.225229,11.572798 v 18.283 l 15.786,-5.745 V 5.8277976 Z"
     id="path48"
     inkscape:connector-curvature="0"
     style="fill:#3775a9;stroke:#cccccc;stroke-width:0.35499999;stroke-linejoin:bevel" />
  <path
     d="m 62.602229,54.182798 v 18.283 l 15.786,-5.746 v -18.283 z"
     id="path50"
     inkscape:connector-curvature="0"
     style="fill:#ffd242;stroke:#cccccc;stroke-width:0.35499999;stroke-linejoin:bevel" />
  <path
     d="m 62.602229,35.718798 v 18.283 l 15.786,-5.746 v -18.283 z m -15.623,24.145 v 18.283 l 15.785,-5.746 v -18.282 z"
     id="path52"
     inkscape:connector-curvature="0"
     style="fill:#3775a9;stroke:#cccccc;stroke-width:0.35499999;stroke-linejoin:bevel" />
  <path
     d="m 31.423229,54.202798 15.556,5.661 v 18.283 l -15.556,-5.662 z m 0,-18.465 15.556,5.662 15.785,-5.745 -15.555,-5.662 z"
     id="path54"
     inkscape:connector-curvature="0"
     style="fill:#2f6491;stroke:#cccccc;stroke-width:0.35499999;stroke-linejoin:bevel" />
  <path
     d="m 46.979229,41.399798 v 18.283 l 15.785,-5.746 v -18.282 z"
     id="path56"
     inkscape:connector-curvature="0"
     style="fill:#3775a9;stroke:#cccccc;stroke-width:0.35499999;stroke-linejoin:bevel" />
  <path
     d="m 31.423229,35.737798 15.556,5.662 v 18.283 l -15.556,-5.662 z m 15.624,-24.145 15.555,5.662 15.786,-5.746 -15.556,-5.6610004 z"
     id="path58"
     inkscape:connector-curvature="0"
     style="fill:#2f6491;stroke:#cccccc;stroke-width:0.35499999;stroke-linejoin:bevel" />
  <path
     d="m 62.602229,17.254798 v 18.283 l 15.786,-5.746 v -18.283 z"
     id="path60"
     inkscape:connector-curvature="0"
     style="fill:#3775a9;stroke:#cccccc;stroke-width:0.35499999;stroke-linejoin:bevel" />
  <path
     d="m 47.047229,11.592798 15.555,5.662 v 18.283 l -15.555,-5.662 z"
     id="path62"
     inkscape:connector-curvature="0"
     style="fill:#2f6491;stroke:#cccccc;stroke-width:0.35499999;stroke-linejoin:bevel" />
  <path
     d="m 71.527229,23.126798 a 2.617,3.737 35 0 1 -3.032,4.33 2.617,3.737 35 0 1 -3.032,-2.123 2.617,3.737 35 0 1 3.032,-4.33 2.617,3.737 35 0 1 3.032,2.123 z"
     id="path64"
     inkscape:connector-curvature="0"
     style="fill:#ffffff" />
  <flowRoot
     xml:space="preserve"
     id="flowRoot4588"
     style="font-style:normal;font-weight:normal;font-size:42.66666794px;line-height:25px;font-family:Sans;letter-spacing:0px;word-spacing:0px;fill:#000000;fill-opacity:1;stroke:none;stroke-width:1px;stroke-linecap:butt;stroke-linejoin:miter;stroke-opacity:1"
     transform="matrix(0.9375015,0,0,0.9375015,-114.61789,-3.6289564)"><flowRegion
       id="flowRegion4590"
       style="font-size:42.66666794px"><rect
         id="rect4592"
         width="333.36713"
         height="90.135162"
         x="247.80789"
         y="15.389842"
         style="font-size:42.66666794px" /></flowRegion><flowPara
       id="flowPara4594"
       style="font-style:normal;font-variant:normal;font-weight:normal;font-stretch:normal;font-size:48px;font-family:Flux;-inkscape-font-specification:Flux;fill:#646464;fill-opacity:1">PyPi Client</flowPara></flowRoot>  <text
     xml:space="preserve"
     style="font-style:normal;font-weight:normal;font-size:37.50006104px;line-height:23.43753815px;font-family:Sans;letter-spacing:0px;word-spacing:0px;fill:#3775a9;fill-opacity:1;stroke:none;stroke-width:0.93750149px;stroke-linecap:butt;stroke-linejoin:miter;stroke-opacity:1"
     x="117.98103"
     y="58.146175"
     id="text844"><tspan
       sodipodi:role="line"
       x="117.98103"
       y="58.146175"
       style="font-size:15.00002384px;line-height:0px;fill:#3775a9;fill-opacity:1;stroke-width:0.93750149px"
       id="tspan846">Pypi Warehouse Command Line Interface </tspan><tspan
       sodipodi:role="line"
       x="117.98103"
       y="81.583725"
       style="font-size:15.00002384px;line-height:0px;fill:#3775a9;fill-opacity:1;stroke-width:0.93750149px"
       id="tspan850">and Python Client API</tspan></text>
</svg>
